<?xml version="1.0" encoding="utf-8"?>
<!-- Generator: Adobe Illustrator 25.2.0, SVG Export Plug-In . SVG Version: 6.00 Build 0)  -->
<svg version="1.1" xmlns="http://www.w3.org/2000/svg" xmlns:xlink="http://www.w3.org/1999/xlink" x="0px" y="0px"
	 viewBox="0 0 700 700" style="enable-background:new 0 0 700 700;" xml:space="preserve">
<g id="Layer_1">
	<g>
		<g>
			<path d="M53.1,192.4v4.6h-45v-4.6c11.7,0,13.6-2.9,13.6-15.1V67.5c0-12.4,0.2-14.7-10.5-9.4l-2.1-4l14.4-7.3l13.6-6.7l2.7,2.7
				v134.5C39.7,189.5,41.5,192.4,53.1,192.4z"/>
			<path d="M61.3,146.5c0-30.8,16.5-54.3,43.2-54.3c26.6,0,43.1,23.5,43.1,54.3c0,31-16.5,54.3-43.1,54.3
				C77.8,200.8,61.3,177.5,61.3,146.5z M127,144.6c-2.7-30.6-11.9-45.5-26.6-44.2C85.8,101.7,79.5,118,82,148.6
				c2.9,30.4,11.9,45.4,26.6,44.2C123.2,191.4,129.5,175.2,127,144.6z"/>
			<path d="M159.9,160.4h4.4C166.9,179,176.9,193,192,193c8.2,0,12-5,12-12.8c0-11.1-8.4-18.2-21.4-29.7c-13-11.5-23-19.7-23-34.4
				c0-14.2,10.1-23.9,25.1-23.9c13.6,0,18.6,7.7,21.8,7.7c2.3,0,2.3-1.9,2.3-5.7h4.4v31.6h-4.4c-2.7-14.2-11.1-25.4-23.3-25.4
				c-8,0-10.9,5.5-10.9,10.1c0,8.8,7.3,15.1,18.8,25.1c17.4,14.9,25.6,23.2,25.6,39.2c0,18-12.4,26.2-26.4,26.2
				c-15.1,0-21.2-7.7-25.3-7.7c-2.5,0-3.1,1.9-3.1,5.7h-4.4V160.4z"/>
			<path d="M280,67.5c0-12.4,0.2-14.7-10.1-9.6l-2.1-4l27.6-13.8l2.5,2.7v68.7h0.8c8.4-11.3,17.4-19.3,30-19.3
				c17.6,0,30.2,17,30.2,47.1c0,33.9-16.1,61.6-41.3,61.6c-15.3,0-27.2-7.8-37.5-15.1V67.5z M316.3,193c16.6,0,22-25.3,22-48.2
				c0-27.9-6.3-40.6-17.8-40.6c-10,0-16.8,7.6-22.8,15.1v62.4C302.8,187.2,308.9,193,316.3,193z"/>
			<path d="M442,156.8c-4,29.5-16.6,44-34.4,44c-21.8,0-35-20.9-35-53.6c0-29.5,13.4-55.1,36.7-55.1c21.8,0,32.5,21,32.5,49h-50.7
				v0.8c0,26,7.8,44.8,23,44.8c9.2,0,18-7.3,23.3-29.8H442z M391.3,133.3h32.1c0-18.4-3.4-33.1-14.9-33.1
				C397.2,100.2,392.3,114,391.3,133.3z"/>
			<path d="M458.3,67.5c0-12.4,0.2-14.7-10.1-9.6l-2.1-4l27.6-13.8l2.5,2.7v68.7h0.8c8.4-11.3,17.4-19.3,30-19.3
				c17.6,0,30.2,17,30.2,47.1c0,33.9-16.1,61.6-41.3,61.6c-15.3,0-27.2-7.8-37.5-15.1V67.5z M494.6,193c16.6,0,22-25.3,22-48.2
				c0-27.9-6.3-40.6-17.8-40.6c-9.9,0-16.8,7.6-22.8,15.1v62.4C481,187.2,487.2,193,494.6,193z"/>
			<path d="M620.3,156.8c-4,29.5-16.6,44-34.4,44c-21.8,0-35-20.9-35-53.6c0-29.5,13.4-55.1,36.7-55.1c21.8,0,32.5,21,32.5,49h-50.7
				v0.8c0,26,7.8,44.8,23,44.8c9.2,0,18-7.3,23.3-29.8H620.3z M569.6,133.3h32.2c0-18.4-3.4-33.1-14.9-33.1
				C575.5,100.2,570.5,114,569.6,133.3z M587,76.8h-7.3l12.8-35h19.1L587,76.8z"/>
			<path d="M632.7,160.4h4.4c2.7,18.6,12.6,32.5,27.7,32.5c8.2,0,12-5,12-12.8c0-11.1-8.4-18.2-21.4-29.7c-13-11.5-23-19.7-23-34.4
				c0-14.2,10.1-23.9,25.1-23.9c13.6,0,18.6,7.7,21.8,7.7c2.3,0,2.3-1.9,2.3-5.7h4.4v31.6h-4.4c-2.7-14.2-11.1-25.4-23.3-25.4
				c-8,0-10.9,5.5-10.9,10.1c0,8.8,7.3,15.1,18.8,25.1c17.4,14.9,25.6,23.2,25.6,39.2c0,18-12.4,26.2-26.4,26.2
				c-15.1,0-21.2-7.7-25.3-7.7c-2.5,0-3.1,1.9-3.1,5.7h-4.4V160.4z"/>
		</g>
		<g>
			<path d="M53.1,421.9v4.6h-45v-4.6c11.7,0,13.6-2.9,13.6-15.1V297c0-12.4,0.2-14.7-10.5-9.4l-2.1-4l14.4-7.3l13.6-6.7l2.7,2.7
				v134.5C39.7,419.1,41.5,421.9,53.1,421.9z"/>
			<path d="M61.3,376c0-30.8,16.5-54.3,43.2-54.3c26.6,0,43.1,23.5,43.1,54.3c0,31-16.5,54.3-43.1,54.3
				C77.8,430.4,61.3,407,61.3,376z M127,374.1c-2.7-30.6-11.9-45.5-26.6-44.2c-14.5,1.3-20.9,17.6-18.4,48.2
				c2.9,30.4,11.9,45.4,26.6,44.2C123.2,421,129.5,404.7,127,374.1z"/>
			<path d="M159.9,390h4.4c2.7,18.6,12.6,32.5,27.7,32.5c8.2,0,12-5,12-12.8c0-11.1-8.4-18.2-21.4-29.7c-13-11.5-23-19.7-23-34.4
				c0-14.2,10.1-23.9,25.1-23.9c13.6,0,18.6,7.7,21.8,7.7c2.3,0,2.3-1.9,2.3-5.7h4.4v31.6h-4.4c-2.7-14.2-11.1-25.4-23.3-25.4
				c-8,0-10.9,5.5-10.9,10.1c0,8.8,7.3,15.1,18.8,25.1c17.4,14.9,25.6,23.2,25.6,39.2c0,18-12.4,26.2-26.4,26.2
				c-15.1,0-21.2-7.7-25.3-7.7c-2.5,0-3.1,1.9-3.1,5.7h-4.4V390z"/>
			<path d="M280,297c0-12.4,0.2-14.7-10.1-9.6l-2.1-4l27.6-13.8l2.5,2.7V341h0.8c8.4-11.3,17.4-19.3,30-19.3
				c17.6,0,30.2,17,30.2,47.1c0,33.9-16.1,61.6-41.3,61.6c-15.3,0-27.2-7.8-37.5-15.1V297z M316.3,422.5c16.6,0,22-25.3,22-48.2
				c0-27.9-6.3-40.6-17.8-40.6c-10,0-16.8,7.6-22.8,15.1v62.4C302.8,416.8,308.9,422.5,316.3,422.5z"/>
			<path d="M442,386.3c-4,29.5-16.6,44-34.4,44c-21.8,0-35-20.9-35-53.6c0-29.5,13.4-55.1,36.7-55.1c21.8,0,32.5,21,32.5,49h-50.7
				v0.8c0,26,7.8,44.8,23,44.8c9.2,0,18-7.3,23.3-29.8H442z M391.3,362.8h32.1c0-18.4-3.4-33.1-14.9-33.1
				C397.2,329.7,392.3,343.5,391.3,362.8z"/>
			<path d="M458.3,297c0-12.4,0.2-14.7-10.1-9.6l-2.1-4l27.6-13.8l2.5,2.7V341h0.8c8.4-11.3,17.4-19.3,30-19.3
				c17.6,0,30.2,17,30.2,47.1c0,33.9-16.1,61.6-41.3,61.6c-15.3,0-27.2-7.8-37.5-15.1V297z M494.6,422.5c16.6,0,22-25.3,22-48.2
				c0-27.9-6.3-40.6-17.8-40.6c-9.9,0-16.8,7.6-22.8,15.1v62.4C481,416.8,487.2,422.5,494.6,422.5z"/>
			<path d="M620.3,386.3c-4,29.5-16.6,44-34.4,44c-21.8,0-35-20.9-35-53.6c0-29.5,13.4-55.1,36.7-55.1c21.8,0,32.5,21,32.5,49h-50.7
				v0.8c0,26,7.8,44.8,23,44.8c9.2,0,18-7.3,23.3-29.8H620.3z M569.6,362.8h32.2c0-18.4-3.4-33.1-14.9-33.1
				C575.5,329.7,570.5,343.5,569.6,362.8z M587,306.4h-7.3l12.8-35h19.1L587,306.4z"/>
			<path d="M632.7,390h4.4c2.7,18.6,12.6,32.5,27.7,32.5c8.2,0,12-5,12-12.8c0-11.1-8.4-18.2-21.4-29.7c-13-11.5-23-19.7-23-34.4
				c0-14.2,10.1-23.9,25.1-23.9c13.6,0,18.6,7.7,21.8,7.7c2.3,0,2.3-1.9,2.3-5.7h4.4v31.6h-4.4c-2.7-14.2-11.1-25.4-23.3-25.4
				c-8,0-10.9,5.5-10.9,10.1c0,8.8,7.3,15.1,18.8,25.1c17.4,14.9,25.6,23.2,25.6,39.2c0,18-12.4,26.2-26.4,26.2
				c-15.1,0-21.2-7.7-25.3-7.7c-2.5,0-3.1,1.9-3.1,5.7h-4.4V390z"/>
		</g>
		<g>
			<path d="M53.1,651.5v4.6h-45v-4.6c11.7,0,13.6-2.9,13.6-15.1V526.5c0-12.4,0.2-14.7-10.5-9.4l-2.1-4l14.4-7.3l13.6-6.7l2.7,2.7
				v134.5C39.7,648.6,41.5,651.5,53.1,651.5z"/>
			<path d="M61.3,605.6c0-30.8,16.5-54.3,43.2-54.3c26.6,0,43.1,23.5,43.1,54.3c0,31-16.5,54.3-43.1,54.3
				C77.8,659.9,61.3,636.6,61.3,605.6z M127,603.6c-2.7-30.6-11.9-45.5-26.6-44.2C85.8,560.8,79.5,577,82,607.7
				c2.9,30.4,11.9,45.4,26.6,44.2C123.2,650.5,129.5,634.3,127,603.6z"/>
			<path d="M159.9,619.5h4.4c2.7,18.6,12.6,32.5,27.7,32.5c8.2,0,12-5,12-12.8c0-11.1-8.4-18.2-21.4-29.6c-13-11.5-23-19.7-23-34.4
				c0-14.2,10.1-23.9,25.1-23.9c13.6,0,18.6,7.7,21.8,7.7c2.3,0,2.3-1.9,2.3-5.7h4.4v31.6h-4.4c-2.7-14.2-11.1-25.4-23.3-25.4
				c-8,0-10.9,5.5-10.9,10.1c0,8.8,7.3,15.1,18.8,25.1c17.4,14.9,25.6,23.2,25.6,39.2c0,18-12.4,26.2-26.4,26.2
				c-15.1,0-21.2-7.7-25.3-7.7c-2.5,0-3.1,1.9-3.1,5.7h-4.4V619.5z"/>
			<path d="M280,526.5c0-12.4,0.2-14.7-10.1-9.6l-2.1-4l27.6-13.8l2.5,2.7v68.7h0.8c8.4-11.3,17.4-19.3,30-19.3
				c17.6,0,30.2,17,30.2,47.1c0,33.9-16.1,61.6-41.3,61.6c-15.3,0-27.2-7.8-37.5-15.1V526.5z M316.3,652.1c16.6,0,22-25.3,22-48.2
				c0-27.9-6.3-40.6-17.8-40.6c-10,0-16.8,7.6-22.8,15.1v62.4C302.8,646.3,308.9,652.1,316.3,652.1z"/>
			<path d="M442,615.9c-4,29.5-16.6,44-34.4,44c-21.8,0-35-20.9-35-53.6c0-29.5,13.4-55.1,36.7-55.1c21.8,0,32.5,21,32.5,49h-50.7
				v0.8c0,26,7.8,44.8,23,44.8c9.2,0,18-7.3,23.3-29.8H442z M391.3,592.4h32.1c0-18.4-3.4-33.1-14.9-33.1
				C397.2,559.3,392.3,573,391.3,592.4z"/>
			<path d="M458.3,526.5c0-12.4,0.2-14.7-10.1-9.6l-2.1-4l27.6-13.8l2.5,2.7v68.7h0.8c8.4-11.3,17.4-19.3,30-19.3
				c17.6,0,30.2,17,30.2,47.1c0,33.9-16.1,61.6-41.3,61.6c-15.3,0-27.2-7.8-37.5-15.1V526.5z M494.6,652.1c16.6,0,22-25.3,22-48.2
				c0-27.9-6.3-40.6-17.8-40.6c-9.9,0-16.8,7.6-22.8,15.1v62.4C481,646.3,487.2,652.1,494.6,652.1z"/>
			<path d="M620.3,615.9c-4,29.5-16.6,44-34.4,44c-21.8,0-35-20.9-35-53.6c0-29.5,13.4-55.1,36.7-55.1c21.8,0,32.5,21,32.5,49h-50.7
				v0.8c0,26,7.8,44.8,23,44.8c9.2,0,18-7.3,23.3-29.8H620.3z M569.6,592.4h32.2c0-18.4-3.4-33.1-14.9-33.1
				C575.5,559.3,570.5,573,569.6,592.4z M587,535.9h-7.3l12.8-35h19.1L587,535.9z"/>
			<path d="M632.7,619.5h4.4c2.7,18.6,12.6,32.5,27.7,32.5c8.2,0,12-5,12-12.8c0-11.1-8.4-18.2-21.4-29.6c-13-11.5-23-19.7-23-34.4
				c0-14.2,10.1-23.9,25.1-23.9c13.6,0,18.6,7.7,21.8,7.7c2.3,0,2.3-1.9,2.3-5.7h4.4v31.6h-4.4c-2.7-14.2-11.1-25.4-23.3-25.4
				c-8,0-10.9,5.5-10.9,10.1c0,8.8,7.3,15.1,18.8,25.1c17.4,14.9,25.6,23.2,25.6,39.2c0,18-12.4,26.2-26.4,26.2
				c-15.1,0-21.2-7.7-25.3-7.7c-2.5,0-3.1,1.9-3.1,5.7h-4.4V619.5z"/>
		</g>
	</g>
</g>
<g id="Isolation_Mode">
</g>
</svg>
