<?xml version="1.0" encoding="utf-8"?>
<!-- Generator: Adobe Illustrator 25.2.0, SVG Export Plug-In . SVG Version: 6.00 Build 0)  -->
<svg version="1.1" xmlns="http://www.w3.org/2000/svg" xmlns:xlink="http://www.w3.org/1999/xlink" x="0px" y="0px"
	 viewBox="0 0 700 700" style="enable-background:new 0 0 700 700;" xml:space="preserve">
<style type="text/css">
	.st0{fill:#231F20;}
</style>
<g id="Layer_1">
	<g>
		<path class="st0" d="M23.6,150.1c1.7,0.9,3,2.3,4,4.2c0.5,0.9,1.7,4,5.1,13.5l37.8,105.7h6.8l26.6-75.2l26.8,75.2h7.2l35.5-102.7
			c3.2-9.9,4.8-13.6,5.6-15c1.6-2.8,3.3-4.7,4.9-5.6c0.6-0.4,1.3-0.6,2.1-0.8l1.6,4.1l2.2-0.8c3.4-1.2,4.9-1.3,5.5-1.3
			c1,0,1.7,0.2,2.2,0.6c0.2,0.2,0.8,0.8,1.3,3.1c0.3,1.4,0.6,5.5,0.6,17.3v76.6c0,6.5-0.6,8.8-0.9,9.6c-0.5,1.2-1.1,1.9-1.9,2.3
			c-1.8,1-4.4,1.5-7.7,1.5h-2.5v8.3h46.9v-8.3h-2.5c-5.1,0-7.1-0.7-7.9-1.1c-1.3-0.7-2.1-1.5-2.5-2.4c-0.2-0.4-0.7-2.2-0.7-9.8
			v-43.7c4-4.2,7.5-7.1,10.3-8.5c2.9-1.4,5.7-2.1,8.3-2.1c2.5,0,4.5,0.6,6.2,1.7c1.7,1.1,2.8,2.9,3.6,5.2c0.6,1.8,1.3,6.3,1.3,17.4
			v29.9c0,5.9-0.1,7.7-0.2,8.2c-0.5,1.8-1.2,3-2.3,3.9c-0.6,0.5-2.3,1.3-6.7,1.3h-4.4v8.3h46.6v-8.3h-2.5c-4.7,0-6.4-0.7-6.9-1
			c-1-0.6-1.7-1.3-2.1-2.4c-0.5-1.1-1.1-3.8-1.1-10V219c0-10.8-0.6-18.1-1.9-22.3c-1.8-6.2-4.7-10.8-8.5-13.7
			c-3.9-3-8.6-4.5-13.9-4.5c-4.4,0-8.8,1.2-13.2,3.5c-3.4,1.8-7.5,5.2-12.6,10.4v-58.1h-7.2l-19.5,8v-1.9h-42.4v8.4h2.5
			c3.4,0,6.2,0.4,8.3,1.1c0.9,0.3,1.6,0.9,2.2,1.7c0.6,0.8,0.9,1.6,0.9,2.5c0,1.8-0.7,5.9-3.9,15.1l-21.5,62.3L117.7,170
			c-3.3-9.4-4-13.7-4-15.6c0-1.8,0.5-3.2,1.6-4.2c1.1-1,3.1-1.6,5.9-1.6h5.8v-8.4H73.2v8.4h2.5c2.8,0,4.2,0.2,4.8,0.4
			c1.3,0.4,2.6,1.1,4,2.1c0.9,0.6,1.7,1.4,2.3,2.3c1.5,2.2,2.9,4.7,4.1,7.6l6.3,18L79,231.4l-22.3-63.6c-3.4-9.8-3.9-13-3.9-14.1
			c0-1.4,0.5-2.5,1.7-3.5c1.3-1.1,3.2-1.6,5.9-1.6H65v-8.4H13.7v8.4h2.5C19.4,148.6,21.9,149.1,23.6,150.1z"/>
		<path class="st0" d="M302.8,272.3c4.1,0,8-0.9,11.7-2.5c1.4-0.6,4.2-2.3,13.2-9.1c0.5,3.3,1.5,5.8,3,7.6c2.3,2.7,5.3,4,9.1,4
			c7.2,0,14.3-4.9,21.8-14.9l0.5-0.7v-12l-4.3,4.3c-4.6,4.6-6.4,6-7,6.4c-0.4,0.2-0.8,0.3-1.3,0.3c-0.3,0-0.6-0.1-0.8-0.3
			c0,0-0.4-0.4-0.7-2.2c-0.2-1.1-0.4-4.6-0.4-14.4v-28.7c0-8.6-0.6-14.2-1.9-17.2c-1.9-4.6-5-8-9.2-10.2c-5.1-2.7-11.8-4.1-19.6-4.1
			c-10.3,0-18.5,2.4-24.4,7.2c-6,4.9-9,10.5-9,16.5c0,3.4,0.9,6.2,2.8,8.2c1.9,2.1,4.4,3.2,7.4,3.2c3,0,5.6-1,7.5-3.1
			c1.9-2,2.8-4.8,2.8-8.4l-0.2-5.3c0-2,0.9-3.7,2.7-5.4c1.8-1.7,4.3-2.5,7.6-2.5c4.4,0,7.6,1.3,9.8,3.8c1.6,1.8,3.4,6.1,3.4,15.8
			v1.6c-13.8,5.1-23.9,9.5-30,13.1c-6.6,3.9-11.3,8.2-14,12.7c-2.1,3.4-3.1,7.4-3.1,12c0,7.2,2.1,13,6.4,17.5
			C290.8,270,296.3,272.3,302.8,272.3z M304,253c-2.2-2.5-3.3-5.5-3.3-9.4c0-3,0.9-5.7,2.7-8.3c1.9-2.6,5.1-5.2,9.6-7.8
			c2.3-1.3,7.1-3.4,14.3-6.3v27.4c-8.3,6.5-13.3,8-16,8C308.6,256.6,306.2,255.4,304,253z"/>
		<path class="st0" d="M367.2,246.8c0,6.5,0.7,11.3,2.2,14.5c1.5,3.4,3.9,6.1,7,7.9c3.1,1.8,6.3,2.7,9.6,2.7c4.7,0,9.3-1.7,13.7-5.1
			c4.3-3.3,7.7-8.3,10-14.8l1.2-3.3H402l-0.6,1.5c-0.9,2-2,3.5-3.5,4.5c-1.5,1-3,1.5-4.5,1.5c-1.7,0-3-0.6-4.1-2
			c-0.7-0.8-1.8-3.1-1.8-9.5v-52.4h19.8v-11.4h-19.8v-27.8h-7l-0.6,1.6c-2.5,6.1-4.4,10.3-5.7,12.5c-2.6,4.2-5.7,7.9-9,11
			c-3.3,3-6.5,5.2-9.6,6.4l-1.6,0.6v7.2h13.4V246.8z"/>
		<path class="st0" d="M470.8,157.9c3.3,0,6.1-1.2,8.4-3.5c2.3-2.3,3.4-5.1,3.4-8.4c0-3.3-1.2-6.1-3.5-8.4c-2.3-2.3-5.1-3.5-8.4-3.5
			c-3.3,0-6.2,1.2-8.5,3.5c-2.3,2.3-3.5,5.1-3.5,8.4c0,3.3,1.2,6.1,3.5,8.4C464.7,156.7,467.5,157.9,470.8,157.9z"/>
		<path class="st0" d="M451,196.9c3.7-1.4,6.5-1.6,7.6-0.7c0.2,0.2,0.8,0.8,1.2,2.7c0.4,1.7,0.8,6.2,0.8,17.3v32.6
			c0,6.4-0.6,8.8-1,9.6c-0.6,1.4-1.4,2.3-2.3,2.8c-0.5,0.3-2.1,0.9-7.1,0.9h-2.5v8.3h46.1v-8.3h-2.5c-4.7,0-6.4-0.6-7-1
			c-1-0.6-1.8-1.5-2.4-2.8c-0.4-0.8-0.9-3.1-0.9-9.6v-70.5h-7l-28.2,11.5l3.1,7.9L451,196.9z"/>
		<path class="st0" d="M520.3,232.9c8.7,4.3,14.5,7.9,17.3,10.6c2.5,2.4,3.7,5.4,3.7,8.9c0,2.8-1.1,5.2-3.2,7.2
			c-2.2,2.1-5.1,3.1-8.7,3.1c-5.5,0-10.3-1.9-14.7-5.9c-4.4-4-7.5-10.1-9.1-18.1l-0.4-2h-7.6v35.2h7.1l0.7-1.4c0.5-1,0.9-1,1.1-1
			c1,0,2.5,0.3,4.3,0.8c6.8,1.9,13,2.9,18.4,2.9c7.8,0,14.9-2.6,21.1-7.6c6.4-5.2,9.7-12.1,9.7-20.6c0-11-6.8-19.8-20.2-26.4
			l-13.5-6.6c-6.8-3.3-9.6-5.8-10.8-7.4c-1.6-2-2.4-4.4-2.4-7.3c0-2,1-3.9,3.1-5.7c2.2-1.9,5.1-2.8,8.8-2.8c5.1,0,9.1,1.4,12.3,4.3
			c3.3,2.9,6.1,8.7,8.3,17.2l0.5,1.9h7.5v-33.8h-7.1l-0.7,1.4c-0.8,1.6-1.2,2-1.2,2c0,0-0.2,0.1-0.8,0.1c-0.4,0-1.6-0.1-5.6-1.3
			c-5-1.5-9.3-2.2-12.8-2.2c-8.2,0-15,2.6-20.3,7.7c-5.2,5.1-7.9,11.6-7.9,19.2c0,5.9,1.6,10.9,4.7,14.8
			C504.9,224.1,510.9,228.3,520.3,232.9z"/>
		<path class="st0" d="M627.1,272.3c4.1,0,8-0.9,11.7-2.5c1.4-0.6,4.2-2.3,13.2-9.1c0.5,3.3,1.5,5.8,3,7.6c2.3,2.7,5.3,4,9.1,4
			c7.2,0,14.3-4.9,21.8-14.9l0.5-0.7v-12l-4.3,4.3c-4.6,4.6-6.4,6-7,6.4c-0.4,0.2-0.8,0.3-1.3,0.3c-0.3,0-0.6-0.1-0.8-0.3
			c0,0-0.4-0.4-0.7-2.2c-0.2-1.1-0.4-4.6-0.4-14.4v-28.7c0-8.6-0.6-14.2-1.9-17.2c-1.9-4.6-5-8-9.2-10.2c-5.1-2.7-11.8-4.1-19.6-4.1
			c-10.3,0-18.5,2.4-24.4,7.2c-6,4.9-9,10.5-9,16.5c0,3.4,0.9,6.2,2.8,8.2c1.9,2.1,4.4,3.2,7.4,3.2c3,0,5.6-1,7.5-3.1
			c1.9-2,2.8-4.8,2.8-8.4l-0.2-5.3c0-2,0.9-3.7,2.7-5.4c1.8-1.7,4.3-2.5,7.6-2.5c4.4,0,7.6,1.3,9.8,3.8c1.6,1.8,3.4,6.1,3.4,15.8
			v1.6c-13.8,5.1-23.9,9.5-30,13.1c-6.6,3.9-11.3,8.2-14,12.7c-2.1,3.4-3.1,7.4-3.1,12c0,7.2,2.1,13,6.4,17.5
			C615.1,270,620.6,272.3,627.1,272.3z M628.3,253c-2.2-2.5-3.3-5.5-3.3-9.4c0-3,0.9-5.7,2.7-8.3c1.9-2.6,5.1-5.2,9.6-7.8
			c2.3-1.3,7.1-3.4,14.3-6.3v27.4c-8.3,6.5-13.3,8-16,8C632.9,256.6,630.5,255.4,628.3,253z"/>
		<path class="st0" d="M146.7,408.8c-0.6-0.7-2-3.5-2-13.4v-53.1h21.8v-11.6h-21.8V327c0-16.1,0.7-21.9,1.2-23.9
			c0.7-2.6,1.8-4.5,3.4-5.7c1.5-1.2,3.4-1.8,5.7-1.8c1.9,0,3.5,0.5,5.1,1.4c1.1,0.7,2.9,2.3,5.5,6.1c2.5,3.7,4.6,6,6.5,7.3
			c4.6,3,9.1,2.4,12.8-1.3c2.1-2.1,3.1-4.4,3.1-7c0-4.2-2.1-8-6.3-11.3c-5.8-4.5-12.4-6.8-19.4-6.8c-7.4,0-14.2,2-20.2,5.8
			c-6,3.8-10.4,9-13.3,15.2c-2.9,6.2-4.3,13.7-4.3,22.5v3.1H108v11.6h16.4v53.1c0,7.1-0.5,10.1-1,11.3c-0.6,1.6-1.6,2.8-3.2,3.7
			c-1.6,1-3.4,1.5-5.5,1.5h-6.3v8.3h55.5v-8.3h-10.2C150.8,411.9,148.5,410.9,146.7,408.8z"/>
		<path class="st0" d="M241.9,385.7l-6.8-4.4l-1.1,2.9c-2.6,6.9-5.8,11.8-9.5,14.5c-3.7,2.7-7.9,4.1-13,4.1
			c-7.6,0-14.1-3.2-19.8-9.9c-5.3-6.2-8.2-14.7-8.5-25.5h58.5V365c0-11.1-3.3-20.1-9.9-26.8c-6.6-6.7-15-10.1-25.2-10.1
			c-11.9,0-21.9,4.4-29.8,13c-7.8,8.5-11.8,20.5-11.8,35.5c0,13.9,3.9,25.3,11.5,33.6c7.7,8.4,17.1,12.7,27.9,12.7
			c10.1,0,18.5-3.8,25.2-11.2c6.5-7.3,10.5-15.5,11.9-24.3L241.9,385.7z M201.5,339.6c2.9,0,5.5,0.8,8.2,2.6c2.7,1.7,4.6,4,6,7.1
			c0.5,1.1,1.1,3.4,1.5,8h-33.7c0.9-5.2,2.9-9.3,6-12.3C193.1,341.3,197,339.6,201.5,339.6z"/>
		<path class="st0" d="M378.5,410.8c-1.2-0.7-2-1.5-2.4-2.2c-0.5-1.1-1-3.8-1-10v-36.4c0-8-0.7-13.8-2.2-17.7
			c-2.2-5.7-5.3-9.9-9.2-12.5c-3.9-2.6-8.4-3.9-13.3-3.9c-5,0-9.9,1.3-14.7,3.8c-4,2.1-8.5,6-13.8,11.7c-1.6-4.3-4-7.7-7.2-10.3
			c-4.3-3.4-9.4-5.2-15.2-5.2c-3.4,0-7,0.7-10.4,2.1c-3.4,1.4-6.7,3.4-9.6,5.8c-0.9,0.7-3.1,2.9-6.8,6.5v-14.5h-6.9l-28.3,11.5
			l3.3,7.9l2.3-0.9c3.6-1.4,6.4-1.6,7.5-0.6c0.2,0.2,0.8,0.8,1.2,2.8c0.4,1.7,0.8,6.2,0.8,17.5v32.3c0,6.4-0.6,8.7-1,9.6
			c-0.6,1.3-1.4,2.2-2.4,2.8c-0.7,0.4-2.4,0.9-6.9,0.9h-2.5v8.3h46.8v-8.3h-2.5c-5.7,0-7.5-0.7-8-0.9c-1-0.6-1.8-1.4-2.4-2.6
			c-0.3-0.6-0.9-2.8-0.9-9.8v-44.5c2.5-2.9,6.1-5.5,10.5-7.9c2.9-1.6,5.8-2.4,8.7-2.4c4,0,7.1,1.6,9.3,4.8c1.7,2.6,2.6,7.1,2.6,13.5
			v36.4c0,6.9-0.3,8.2-0.4,8.4c-0.5,1.6-1.4,2.8-2.6,3.6c-0.8,0.5-2.8,1.3-8.3,1.3h-2.5v8.3h47.8v-8.3h-2.5c-4.8,0-7-0.6-8-1.1
			c-1.3-0.7-2.1-1.5-2.6-2.4c-0.2-0.4-0.7-2.2-0.7-9.8l0-40.5l-0.2-3.6c4.2-3.9,7.8-6.7,10.8-8.1c2.9-1.5,5.9-2.2,8.7-2.2
			c4.4,0,7.5,1.5,9.4,4.7c1,1.7,2.2,5.3,2.2,13.3v36.4c0,6.6-0.2,8.1-0.3,8.3c-0.5,1.6-1.2,2.7-2.1,3.4c-1.6,1.1-4,1.7-7.1,1.7h-4.2
			v8.3h46.7v-8.3h-2.5C381.3,411.9,379.4,411.3,378.5,410.8z"/>
		<path class="st0" d="M466.8,406.4v-12l-4.3,4.3c-4.6,4.6-6.4,6-7,6.4c-0.4,0.2-0.8,0.3-1.3,0.3c-0.3,0-0.6-0.1-0.8-0.3
			c0,0-0.4-0.4-0.7-2.2c-0.2-1.1-0.4-4.6-0.4-14.4v-28.7c0-8.6-0.6-14.2-1.9-17.2c-1.9-4.6-5-8-9.2-10.2c-5.1-2.7-11.8-4.1-19.6-4.1
			c-10.3,0-18.5,2.4-24.4,7.2c-6,4.9-9,10.5-9,16.5c0,3.4,0.9,6.2,2.8,8.2c1.9,2.1,4.4,3.2,7.4,3.2c3,0,5.6-1,7.5-3.1
			c1.9-2,2.8-4.8,2.8-8.4l-0.2-5.3c0-2,0.9-3.7,2.7-5.4c1.8-1.7,4.3-2.5,7.6-2.5c4.4,0,7.6,1.3,9.8,3.8c1.6,1.8,3.4,6.1,3.4,15.8
			v1.6c-13.8,5.1-23.9,9.5-30,13.1c-6.6,3.9-11.3,8.2-14,12.7c-2.1,3.4-3.1,7.4-3.1,12c0,7.2,2.1,13,6.4,17.5
			c4.3,4.5,9.7,6.8,16.3,6.8c4.1,0,8-0.9,11.7-2.5c1.4-0.6,4.2-2.3,13.2-9.1c0.5,3.3,1.5,5.8,3,7.6c2.3,2.7,5.3,4,9.1,4
			c7.2,0,14.3-4.9,21.8-14.9L466.8,406.4z M408.8,402.7c-2.2-2.5-3.3-5.5-3.3-9.4c0-3,0.9-5.7,2.7-8.3c1.9-2.6,5.1-5.2,9.6-7.8
			c2.3-1.3,7.1-3.4,14.3-6.3v27.4c-8.3,6.5-13.3,8-16,8C413.4,406.3,411,405.1,408.8,402.7z"/>
		<path class="st0" d="M500.2,410.9c-1.1-0.6-1.9-1.5-2.5-2.8c-0.4-0.8-0.9-3.1-0.9-9.5V283.9h-7.1l-28.1,11.5l3.7,7.7l2.2-0.9
			c2.7-1.1,4.3-1.3,5.2-1.3c0.9,0,1.6,0.2,2,0.6c0.2,0.1,0.8,0.8,1.2,3.1c0.3,1.4,0.6,5.5,0.6,17.1v76.9c0,6.4-0.6,8.8-1,9.6
			c-0.6,1.4-1.3,2.3-2.3,2.8c-0.5,0.3-2.1,0.9-6.7,0.9h-2.5v8.3h46.5v-8.3h-2.5C502.8,411.9,500.9,411.3,500.2,410.9z"/>
		<path class="st0" d="M579.8,384.2c-2.6,6.9-5.8,11.8-9.5,14.5c-3.7,2.7-7.9,4.1-13,4.1c-7.6,0-14.1-3.2-19.8-9.9
			c-5.3-6.2-8.2-14.7-8.5-25.5h58.5V365c0-11.1-3.3-20.1-9.9-26.8c-6.6-6.7-15-10.1-25.2-10.1c-11.9,0-21.9,4.4-29.8,13
			c-7.8,8.5-11.8,20.5-11.8,35.5c0,13.9,3.9,25.3,11.5,33.6c7.7,8.4,17.1,12.7,27.9,12.7c10.1,0,18.5-3.8,25.2-11.2
			c6.5-7.3,10.5-15.5,11.9-24.3l0.2-1.6l-6.8-4.4L579.8,384.2z M547.2,339.6c2.9,0,5.5,0.8,8.2,2.6c2.7,1.7,4.6,4,6,7.1
			c0.5,1.1,1.1,3.4,1.5,8h-33.7c0.9-5.2,2.9-9.3,6-12.3C538.9,341.3,542.8,339.6,547.2,339.6z"/>
		<path class="st0" d="M171.6,553.9c-1.2-0.7-2-1.5-2.4-2.2c-0.5-1.1-1-3.8-1-10v-36.4c0-8-0.7-13.8-2.2-17.7
			c-2.2-5.7-5.3-9.9-9.2-12.5c-3.9-2.6-8.4-3.9-13.3-3.9c-5,0-9.9,1.3-14.7,3.8c-4,2.1-8.5,6-13.8,11.7c-1.6-4.3-4-7.7-7.2-10.3
			c-4.3-3.4-9.4-5.2-15.2-5.2c-3.4,0-7,0.7-10.4,2.1c-3.4,1.4-6.7,3.4-9.6,5.8c-0.9,0.7-3.1,2.9-6.8,6.5v-14.5h-6.9l-28.3,11.5
			l3.3,7.9l2.3-0.9c3.6-1.4,6.4-1.6,7.5-0.6c0.2,0.2,0.8,0.8,1.2,2.8c0.4,1.7,0.8,6.2,0.8,17.5v32.3c0,6.4-0.6,8.7-1,9.6
			c-0.6,1.3-1.4,2.2-2.4,2.8c-0.7,0.4-2.4,0.9-6.9,0.9h-2.5v8.3h46.8V555h-2.5c-5.7,0-7.5-0.7-8-0.9c-1-0.6-1.8-1.4-2.4-2.6
			c-0.3-0.6-0.9-2.8-0.9-9.8v-44.5c2.5-2.9,6.1-5.5,10.5-7.9c2.9-1.6,5.8-2.4,8.7-2.4c4,0,7.1,1.6,9.3,4.8c1.7,2.6,2.6,7.1,2.6,13.5
			v36.4c0,6.9-0.3,8.2-0.4,8.4c-0.5,1.6-1.4,2.8-2.6,3.6c-0.8,0.5-2.8,1.3-8.3,1.3H83v8.3h47.8V555h-2.5c-4.8,0-7-0.6-8-1.1
			c-1.3-0.7-2.1-1.5-2.6-2.4c-0.2-0.4-0.7-2.2-0.7-9.8l0-40.5l-0.2-3.6c4.2-3.9,7.8-6.7,10.8-8.1c2.9-1.5,5.9-2.2,8.7-2.2
			c4.4,0,7.5,1.5,9.4,4.7c1,1.7,2.2,5.3,2.2,13.3v36.4c0,6.6-0.2,8.1-0.3,8.3c-0.5,1.6-1.2,2.7-2.1,3.4c-1.6,1.1-4,1.7-7.1,1.7h-4.2
			v8.3H181V555h-2.5C174.4,555,172.5,554.4,171.6,553.9z"/>
		<path class="st0" d="M254,486.7c-8.2-10.3-19.3-15.5-32.8-15.5c-7.4,0-14.6,2-21.2,5.8c-6.7,3.9-12.1,10-16.2,18
			c-4,8-6,16.1-6,24.3c0,11.2,3.4,21.4,10,30.3c8,10.8,18.9,16.3,32.4,16.3c8.3,0,15.9-2.1,22.6-6.3c6.8-4.2,12.1-10.4,16-18.6
			c3.8-8.1,5.7-16.2,5.7-24.1C264.4,505.6,260.9,495.4,254,486.7z M236.9,547.9c-3.4,4.3-7.6,6.4-12.8,6.4c-7.1,0-12.7-4-17.2-12.1
			c-4.7-8.5-7-18.8-7-30.7c0-7.3,1-13.3,2.9-17.8c1.8-4.3,4.2-7.4,7-9c2.9-1.7,5.8-2.6,8.6-2.6c6,0,10.8,2.6,14.7,7.9
			c6.1,8.1,9.2,19.6,9.2,34C242.2,535.4,240.4,543.4,236.9,547.9z"/>
		<path class="st0" d="M401.2,511.3l-13.5-6.6c-6.8-3.3-9.6-5.8-10.8-7.4c-1.6-2-2.4-4.4-2.4-7.3c0-2,1-3.9,3.1-5.7
			c2.2-1.9,5.1-2.8,8.8-2.8c5.1,0,9.1,1.4,12.3,4.3c3.3,2.9,6.1,8.7,8.3,17.2l0.5,1.9h7.5v-33.8h-7.1l-0.7,1.4c-0.8,1.6-1.2,2-1.2,2
			c0,0-0.2,0.1-0.8,0.1c-0.4,0-1.6-0.1-5.6-1.3c-5-1.5-9.3-2.2-12.8-2.2c-8.2,0-15,2.6-20.3,7.7c-5.2,5.1-7.9,11.6-7.9,19.2
			c0,5.9,1.6,10.9,4.7,14.8c3,3.9,9.1,8.1,18.4,12.7c8.7,4.3,14.5,7.9,17.3,10.6c2.5,2.4,3.7,5.4,3.7,8.9c0,2.8-1.1,5.2-3.2,7.2
			c-2.2,2.1-5.1,3.1-8.7,3.1c-5.5,0-10.3-1.9-14.7-5.9c-4.4-4-7.5-10.1-9.1-18.1l-0.4-2H359V555h-2.3c-4.7,0-6.5-0.6-7.1-1
			c-1-0.6-1.8-1.4-2.2-2.5c-0.4-0.9-1.1-3.3-1.1-9.9v-36.1c0-8-0.7-13.8-2.2-17.9c-2.1-5.8-5.1-10-8.9-12.6
			c-3.7-2.6-8.2-3.9-13.3-3.9c-8.3,0-17,4.7-25.9,13.9v-13.9h-6.9l-28.3,11.5l3.3,7.9l2.3-0.9c3.6-1.4,6.3-1.6,7.5-0.6
			c0.2,0.2,0.8,0.8,1.3,3.1c0.3,1.4,0.6,5.7,0.6,18.1v31.4c0,7.4-1.1,10.1-1.8,11.1c-1,1.5-3.3,2.2-6.7,2.2H263v8.3h46.8V555h-2.5
			c-5.7,0-7.5-0.7-8-0.9c-1.1-0.6-1.9-1.5-2.5-2.9c-0.1-0.3-0.8-1.9-0.8-9.5V498c6.5-7,13.1-10.5,19.4-10.5c3.9,0,6.4,1.3,8,4
			c1.8,3.1,2.7,8.3,2.7,15.5v34.6c0,6.6-0.2,7.9-0.3,8.1c-0.5,1.8-1.3,3.1-2.4,4c-0.6,0.5-2.3,1.3-6.8,1.3h-4.2v8.3H359v1.3h7.1
			l0.7-1.4c0.5-1,0.9-1,1.1-1c1,0,2.5,0.3,4.3,0.8c6.8,1.9,13,2.9,18.4,2.9c7.8,0,14.9-2.6,21.1-7.6c6.4-5.2,9.7-12.1,9.7-20.6
			C421.4,526.7,414.6,517.8,401.2,511.3z"/>
		<path class="st0" d="M548.3,528.7l-6.8-4.4l-1.1,2.9c-2.6,6.9-5.8,11.8-9.5,14.5c-3.7,2.7-7.9,4.1-13,4.1
			c-7.6,0-14.1-3.2-19.8-9.9c-5.3-6.2-8.2-14.7-8.5-25.5h58.5V508c0-11.1-3.3-20.1-9.9-26.8c-6.6-6.7-15-10.1-25.2-10.1
			c-11.9,0-21.9,4.4-29.8,13c-7.8,8.5-11.8,20.5-11.8,35.5c0,8.2,1.4,15.6,4.1,21.9h-8.1l-0.6,1.5c-0.9,2-2,3.5-3.5,4.5
			c-1.5,1-3,1.5-4.5,1.5c-1.7,0-3-0.6-4.1-2c-0.7-0.8-1.8-3.1-1.8-9.5v-52.4h19.8v-11.4h-19.8v-27.8h-7l-0.6,1.6
			c-2.5,6.1-4.4,10.3-5.7,12.5c-2.6,4.2-5.7,7.9-9,11c-3.3,3-6.5,5.2-9.6,6.4l-1.6,0.6v7.2h13.4v54.4c0,6.5,0.7,11.3,2.2,14.5
			c1.5,3.4,3.9,6.1,7,7.9c3.1,1.8,6.3,2.7,9.6,2.7c4.7,0,9.3-1.7,13.7-5.1c4.3-3.3,7.7-8.3,10-14.8l0.9-2.4c1.8,4,4.2,7.6,7.1,10.8
			c7.7,8.4,17.1,12.7,27.9,12.7c10.1,0,18.5-3.8,25.2-11.2c6.5-7.3,10.5-15.5,11.9-24.3L548.3,528.7z M507.9,482.6
			c2.9,0,5.5,0.8,8.2,2.6c2.7,1.7,4.6,4,6,7.1c0.5,1.1,1.1,3.4,1.5,8h-33.7c0.9-5.2,2.9-9.3,6-12.3
			C499.5,484.3,503.4,482.6,507.9,482.6z"/>
		<path class="st0" d="M597.9,471.2c-6.8,0-13.1,4.2-19.3,12.9v-12.9h-6.9l-28.1,11.4l2.3,8.1l2.6-1c2.1-0.8,4-1.2,5.6-1.2
			c1,0,1.8,0.2,2.5,0.7c0.6,0.5,1.1,1.4,1.3,2.7c0.2,1,0.5,4.5,0.5,17.1v32.8c0,6.7-0.3,8.1-0.4,8.3c-0.4,1.6-1.2,2.6-2.2,3.3
			c-1.7,1.1-4.5,1.6-8.3,1.6h-2.5v8.3h48.3V555h-2.5c-3.4,0-5.9-0.5-7.6-1.4c-1.6-0.8-2.6-1.9-3.2-3.1c-1-2-1.5-5.3-1.5-9.5v-40
			c2.7-5.2,5.3-9,7.8-11.3c0.9-0.9,1.6-1.2,1.9-1.2c0,0,1.1,0.1,4.4,2.6c3.2,2.5,6,3.7,8.8,3.7c2.9,0,5.4-1.1,7.5-3.3
			c2.1-2.1,3.1-4.8,3.1-7.8c0-3.4-1.4-6.4-4.1-9C605.4,472.4,602,471.2,597.9,471.2z"/>
		<path class="st0" d="M674.5,442.1c-6.4-8-16.5-12-29.9-12c-10.8,0-19.5,2.9-26,8.7c-6.5,5.8-9.8,12.7-9.8,20.3
			c0,5.1,1.3,9.3,3.8,12.3c2.6,3.1,5.6,4.7,9,4.7c2.7,0,5.1-1,7-3c1.9-2,2.8-4.4,2.8-7.3c0-2.2-1-5-3.1-8.8
			c-1.6-2.9-2.5-5.4-2.5-7.2c0-2.2,1.2-4.3,3.7-6.3c2.6-2.1,6.3-3.2,11.1-3.2c5.3,0,9.7,2,13.4,6.1c3.7,4.1,5.6,9.8,5.6,17
			c0,3.6-0.5,7.1-1.6,10.6c-1.1,3.6-3.4,8.8-7,15.6c-4.8,9.2-8,16.4-9.6,21.7c-1.6,5.2-2.6,11.9-3,19.8l-0.1,2.6h8.8l0.1-2.3
			c0.4-7,1.6-12.6,3.4-16.5c1.9-4,7.3-11,16-20.9c5.8-6.6,9.7-12.4,11.8-17.4c2.1-5,3.2-10,3.2-14.8
			C681.7,454.6,679.3,448,674.5,442.1z"/>
		<path class="st0" d="M643.5,540.2c-3.5,0-6.5,1.3-9,3.7c-2.5,2.5-3.7,5.5-3.7,9.1c0,3.5,1.3,6.5,3.7,9c2.5,2.5,5.5,3.7,9,3.7
			c3.5,0,6.5-1.3,9-3.7c2.5-2.5,3.8-5.5,3.8-9c0-3.6-1.3-6.6-3.7-9.1C650.1,541.4,647,540.2,643.5,540.2z"/>
	</g>
</g>
<g id="Isolation_Mode">
</g>
</svg>
