<?xml version="1.0" encoding="utf-8"?>
<!-- Generator: Adobe Illustrator 25.2.0, SVG Export Plug-In . SVG Version: 6.00 Build 0)  -->
<svg version="1.1" xmlns="http://www.w3.org/2000/svg" xmlns:xlink="http://www.w3.org/1999/xlink" x="0px" y="0px"
	 viewBox="0 0 700 700" style="enable-background:new 0 0 700 700;" xml:space="preserve">
<style type="text/css">
	.st0{fill:#231F20;}
</style>
<g id="Layer_1">
	<g>
		<g>
			<path class="st0" d="M53.3,156.9c-7.5-6.1-11.3-15.3-11.3-27.5V64.4H16.2V43.7h25.9V8.5h23.5v35.3h32.7v20.7H65.6v65.6
				c0,10,6.5,15.1,19.5,15.1c4.9,0,10.1-0.7,15.8-2.1v20.7c-5.3,1.6-11.6,2.3-18.8,2.3C70.4,166,60.9,163,53.3,156.9z"/>
			<path class="st0" d="M162.9,0h28.9v27.8h-28.9V0z M188.8,43.7v118.8h-23.3V43.7H188.8z"/>
			<path class="st0" d="M338.1,110.8h-68c0.2,11.8,2.4,20.7,6.7,26.8c4.3,6.1,10.2,9.2,17.8,9.2c5.3,0,9.3-1,12-2.9
				c2.6-2,4.8-5,6.3-9.1h22.8c-4.5,20.8-18.3,31.3-41.1,31.3c-15.2,0-27-5.5-35.3-16.6c-8.3-11.1-12.5-26.9-12.5-47.4
				c0-20.5,4.1-36,12.3-46.3c8.2-10.4,19.6-15.5,34.2-15.5c14.3,0,25.3,4.8,33,14.2c7.8,9.5,11.6,23.5,11.6,42V110.8z M314.8,91
				c0-10.5-1.9-18.4-5.6-23.6c-3.8-5.2-9-7.9-15.8-7.9c-6.9,0-12.5,2.6-16.7,7.9c-4.2,5.2-6.4,13.1-6.6,23.6H314.8z"/>
			<path class="st0" d="M371,43.7h22.1v20c2.5-6.9,7.2-12.5,14.1-16.9c6.9-4.4,14.4-6.6,22.6-6.6c6,0,11.4,0.6,16.5,1.7v23
				c-5.7-1.3-11.3-1.9-16.9-1.9c-10.8,0-19.4,3.1-25.9,9.3c-6.4,6.2-9.6,15.2-9.6,27.2v63H371V43.7z"/>
			<path class="st0" d="M486,43.7h22.1v20c2.5-6.9,7.2-12.5,14.1-16.9c6.9-4.4,14.4-6.6,22.6-6.6c6,0,11.4,0.6,16.5,1.7v23
				c-5.6-1.3-11.3-1.9-16.9-1.9c-10.8,0-19.4,3.1-25.9,9.3c-6.4,6.2-9.6,15.2-9.6,27.2v63H486V43.7z"/>
			<path class="st0" d="M605.7,156.9c-6.4-6.1-9.6-14-9.6-23.8c0-18.7,11.6-31.4,34.8-38.3l12.9-3.8c5.2-1.6,8.7-3.3,10.7-5.1
				c2-1.8,3-4.5,3-8.1v-2.3c0-10.7-5.6-16-16.7-16c-10.4,0-16.5,5.4-18.4,16.2h-24c1-10,5.3-18.5,13.1-25.3s17.5-10.2,29.3-10.2
				c26.5,0,39.7,12.5,39.7,37.6v61.9c0,10.8,1.1,18.4,3.3,22.8h-24c-1.6-3.4-2.3-7.4-2.3-11.8c-2,3.6-5.5,7.1-10.2,10.4
				c-4.8,3.3-10.5,4.9-17.1,4.9C620.3,166,612.2,163,605.7,156.9z M650.8,139.7c4.5-5,6.7-12,6.7-20.9v-15.3
				c-1.4,2.3-5.8,4.7-13.2,7l-4.2,1.4c-7.2,2.3-12.5,5.1-15.8,8.3c-3.3,3.2-4.9,7.3-4.9,12.3c0,4.6,1.4,8.1,4.2,10.7
				c2.8,2.6,6.6,3.9,11.3,3.9C641,147.2,646.3,144.7,650.8,139.7z"/>
		</g>
		<g>
			<path class="st0" d="M53.3,403.3c-7.5-6.1-11.3-15.3-11.3-27.5v-64.9H16.2v-20.7h25.9v-35.3h23.5v35.3h32.7v20.7H65.6v65.6
				c0,10,6.5,15.1,19.5,15.1c4.9,0,10.1-0.7,15.8-2.1v20.7c-5.3,1.6-11.6,2.3-18.8,2.3C70.4,412.4,60.9,409.4,53.3,403.3z"/>
			<path class="st0" d="M162.9,246.4h28.9v27.8h-28.9V246.4z M188.8,290.2v118.8h-23.3V290.2H188.8z"/>
			<path class="st0" d="M338.1,357.2h-68c0.2,11.8,2.4,20.7,6.7,26.8c4.3,6.1,10.2,9.2,17.8,9.2c5.3,0,9.3-1,12-2.9
				c2.6-2,4.8-5,6.3-9.1h22.8c-4.5,20.9-18.3,31.3-41.1,31.3c-15.2,0-27-5.5-35.3-16.6c-8.3-11.1-12.5-26.9-12.5-47.4
				c0-20.5,4.1-36,12.3-46.3c8.2-10.4,19.6-15.5,34.2-15.5c14.3,0,25.3,4.7,33,14.2c7.8,9.5,11.6,23.5,11.6,42V357.2z M314.8,337.4
				c0-10.5-1.9-18.4-5.6-23.6c-3.8-5.2-9-7.9-15.8-7.9c-6.9,0-12.5,2.6-16.7,7.9c-4.2,5.2-6.4,13.1-6.6,23.6H314.8z"/>
			<path class="st0" d="M371,290.2h22.1v20c2.5-6.9,7.2-12.5,14.1-16.9c6.9-4.4,14.4-6.6,22.6-6.6c6,0,11.4,0.5,16.5,1.6v23
				c-5.7-1.3-11.3-1.9-16.9-1.9c-10.8,0-19.4,3.1-25.9,9.3c-6.4,6.2-9.6,15.2-9.6,27.2v63H371V290.2z"/>
			<path class="st0" d="M486,290.2h22.1v20c2.5-6.9,7.2-12.5,14.1-16.9c6.9-4.4,14.4-6.6,22.6-6.6c6,0,11.4,0.5,16.5,1.6v23
				c-5.6-1.3-11.3-1.9-16.9-1.9c-10.8,0-19.4,3.1-25.9,9.3c-6.4,6.2-9.6,15.2-9.6,27.2v63H486V290.2z"/>
			<path class="st0" d="M605.7,403.3c-6.4-6.1-9.6-14-9.6-23.7c0-18.7,11.6-31.4,34.8-38.3l12.9-3.8c5.2-1.6,8.7-3.3,10.7-5.1
				c2-1.8,3-4.5,3-8.1v-2.4c0-10.7-5.6-16-16.7-16c-10.4,0-16.5,5.4-18.4,16.2h-24c1-10,5.3-18.5,13.1-25.3s17.5-10.2,29.3-10.2
				c26.5,0,39.7,12.5,39.7,37.6v61.8c0,10.8,1.1,18.4,3.3,22.8h-24c-1.6-3.4-2.3-7.4-2.3-11.8c-2,3.6-5.5,7.1-10.2,10.4
				c-4.8,3.3-10.5,4.9-17.1,4.9C620.3,412.4,612.2,409.4,605.7,403.3z M650.8,386.1c4.5-5,6.7-12,6.7-20.9v-15.3
				c-1.4,2.3-5.8,4.7-13.2,7l-4.2,1.4c-7.2,2.3-12.5,5.1-15.8,8.3c-3.3,3.2-4.9,7.3-4.9,12.3c0,4.6,1.4,8.1,4.2,10.7
				c2.8,2.6,6.6,3.9,11.3,3.9C641,393.6,646.3,391.1,650.8,386.1z"/>
		</g>
		<g>
			<path class="st0" d="M46.5,557.3H19v-20.7h27.5v-12.2c0-12.1,3.8-21.3,11.4-27.6c7.6-6.4,16.8-9.5,27.6-9.5
				c4.4,0,9.8,0.7,16.2,2.1v20.2c-4.2-1.3-8.7-1.9-13.4-1.9c-4.9,0-9.1,1.3-12.8,3.8c-3.7,2.5-5.5,6.6-5.5,12.2v12.9h30.6v20.7H70.1
				v98.1H46.5V557.3z"/>
			<path class="st0" d="M218.7,655.3h-23.5c-2.2-3.4-3.3-7.4-3.3-11.8c-5.6,10.2-14.4,15.3-26.3,15.3c-9.2,0-16.7-3-22.3-8.9
				c-5.6-6-8.5-15.5-8.5-28.7v-84.7h22.8v81.4c0,14.4,4.8,21.6,14.3,21.6c5.8,0,10.5-2.9,14.2-8.6c3.7-5.7,5.5-14.8,5.5-27.2v-67.3
				h22.8v93.8C214.4,643.4,215.8,651.7,218.7,655.3z"/>
			<path class="st0" d="M338.1,603.6h-68c0.2,11.8,2.4,20.7,6.7,26.8c4.3,6.1,10.2,9.2,17.8,9.2c5.3,0,9.3-1,12-2.9
				c2.6-2,4.8-5,6.3-9.1h22.8c-4.5,20.8-18.3,31.3-41.1,31.3c-15.2,0-27-5.5-35.3-16.6c-8.3-11.1-12.5-26.9-12.5-47.4
				c0-20.5,4.1-36,12.3-46.3c8.2-10.4,19.6-15.5,34.2-15.5c14.3,0,25.3,4.8,33,14.2c7.8,9.5,11.6,23.5,11.6,42V603.6z M314.8,583.8
				c0-10.5-1.9-18.4-5.6-23.6c-3.8-5.2-9-7.9-15.8-7.9c-6.9,0-12.5,2.6-16.7,7.9c-4.2,5.2-6.4,13.1-6.6,23.6H314.8z"/>
			<path class="st0" d="M381.4,690.7c-6.6-6.2-10.2-14.2-10.8-24.1h22.8c1.3,9.4,6.1,14.1,14.6,14.1c6.3,0,10.7-2,13.4-6.1
				c2.7-4.1,4-10.8,4-20.2V637c-1.9,4.1-5,7.2-9.4,9.4c-4.4,2.2-9,3.3-13.9,3.3c-11,0-20.2-4.8-27.5-14.5c-7.4-9.6-11-24.3-11-43.9
				c0-19.7,3.7-34.4,11-44c7.4-9.6,16.6-14.4,27.5-14.4c4.9,0,9.6,1.1,14.1,3.3c4.5,2.2,7.8,5.3,9.6,9.4v-9.2h22.6v116.9
				c0,14.6-3.7,26-11.2,34.2C429.8,695.9,420,700,408,700C396.8,700,388,696.9,381.4,690.7z M421,621.5c3.2-6,4.8-16,4.8-30.1
				c0-14-1.6-24-4.9-30c-3.3-6-8.2-9.1-14.6-9.1c-13.3,0-20,13-20,39s6.7,39,20,39C412.9,630.4,417.8,627.4,421,621.5z"/>
			<path class="st0" d="M475.9,595.8c0-41.9,15.6-62.8,46.8-62.8s46.8,20.9,46.8,62.8c0,42-15.6,63-46.8,63S475.9,637.8,475.9,595.8
				z M546.2,595.8c0-29-7.8-43.5-23.5-43.5c-15.7,0-23.5,14.5-23.5,43.5c0,29.2,7.8,43.7,23.5,43.7
				C538.4,639.6,546.2,625,546.2,595.8z"/>
		</g>
	</g>
</g>
<g id="Isolation_Mode">
</g>
</svg>
