<svg id="Layer_1" data-name="Layer 1" xmlns="http://www.w3.org/2000/svg" viewBox="0 0 60 60"><defs><style>.cls-1,.cls-2,.cls-3{fill:none;}.cls-2,.cls-3{stroke:#000;}.cls-3{stroke-dasharray:3.95 3.95;}</style></defs><rect class="cls-1" width="60" height="60"/><rect class="cls-1" x="12.13" y="12.16" width="24.74" height="24.74"/><polyline class="cls-2" points="12.13 14.66 12.13 12.16 14.63 12.16"/><line class="cls-3" x1="18.58" y1="12.16" x2="32.4" y2="12.16"/><polyline class="cls-2" points="34.37 12.16 36.87 12.16 36.87 14.66"/><path class="cls-3" d="M36.87,32.43" transform="translate(0 0)"/><path class="cls-3" d="M36.87,18.61" transform="translate(0 0)"/><path class="cls-2" d="M41.37,43.91" transform="translate(0 0)"/><path class="cls-2" d="M36.87,36.91" transform="translate(0 0)"/><path class="cls-2" d="M36.87,34.41" transform="translate(0 0)"/><path class="cls-3" d="M16.6,36.91" transform="translate(0 0)"/><path class="cls-3" d="M30.42,36.91" transform="translate(0 0)"/><polyline class="cls-2" points="14.63 36.91 12.13 36.91 12.13 34.41"/><line class="cls-3" x1="12.13" y1="30.46" x2="12.13" y2="16.64"/><polyline class="cls-2" points="22.96 42.34 17.63 42.34 17.63 17.59 42.37 17.59 42.37 23.19"/><rect class="cls-2" x="23.13" y="23.09" width="24.74" height="24.74"/></svg>