<svg xmlns="http://www.w3.org/2000/svg" viewBox="0 0 60 60"><defs><style>.cls-1{fill:none;}</style></defs><g id="Layer_2" data-name="Layer 2"><g id="Layer_1-2" data-name="Layer 1"><rect class="cls-1" width="60" height="60"/><polygon points="40.11 49.91 21.73 49.91 21.73 24.89 22.73 24.89 22.73 48.91 39.11 48.91 39.11 24.89 40.11 24.89 40.11 49.91"/><path d="M40.11,25.39H21.73v-.93a6.07,6.07,0,0,1,6.05-6.06h6.28a6.06,6.06,0,0,1,6,6.05Zm-17.38-1H39.11a5.06,5.06,0,0,0-5-5H27.78A5.06,5.06,0,0,0,22.73,24.39Z"/><path d="M7.89,21l2.89-.81.27,1L8.16,22Zm5.78-1.61,2.89-.8.27,1-2.89.8Zm5.78-1.61,2.89-.8.27,1-2.89.8Z"/><path d="M19.45,14.27l.27-1,2.89.81-.27,1Zm-5.78-1.6.27-1,2.89.81-.27,1ZM7.89,11.06l.27-1,2.89.81-.27,1Z"/><path d="M33.57,19.39h-5.3v-5.3h5.3Zm-4.3-1h3.3v-3.3h-3.3Z"/></g></g></svg>